<?xml version="1.0" standalone="no"?>
<!DOCTYPE svg PUBLIC "-//W3C//DTD SVG 20010904//EN"
 "http://www.w3.org/TR/2001/REC-SVG-20010904/DTD/svg10.dtd">
<svg version="1.0" xmlns="http://www.w3.org/2000/svg"
 width="512.000000pt" height="512.000000pt" viewBox="0 0 512.000000 512.000000"
 preserveAspectRatio="xMidYMid meet">
<metadata>
Created by potrace 1.10, written by Peter Selinger 2001-2011
</metadata>
<g transform="translate(0.000000,512.000000) scale(0.100000,-0.100000)"
fill="#000000" stroke="none">
<path d="M2160 4414 c-378 -20 -724 -177 -1001 -453 -328 -328 -482 -744 -449
-1209 18 -255 99 -501 235 -712 71 -110 106 -153 230 -276 193 -192 424 -323
691 -393 222 -59 546 -59 768 0 548 144 971 567 1115 1115 58 220 58 548 0
768 -100 381 -339 709 -669 921 -126 81 -294 154 -446 194 -120 32 -334 52
-474 45z m235 -34 c555 -64 1001 -382 1233 -881 233 -500 168 -1093 -169
-1542 -178 -238 -441 -428 -719 -521 -334 -111 -662 -110 -990 2 -202 69 -442
223 -588 376 -394 415 -526 983 -355 1521 144 451 507 819 955 969 216 73 432
99 633 76z"/>
<path d="M2125 4249 c-97 -6 -151 -16 -270 -48 -53 -15 -158 -57 -231 -94
-302 -152 -549 -427 -672 -747 -72 -188 -99 -397 -82 -615 6 -65 15 -136 21
-159 6 -22 15 -59 21 -81 109 -414 437 -775 848 -933 187 -71 389 -98 611 -82
66 5 139 15 162 21 23 6 60 15 82 21 415 109 775 437 933 848 72 188 99 397
82 615 -6 65 -15 136 -21 159 -6 22 -15 59 -21 81 -120 459 -514 853 -973 973
-22 6 -59 15 -82 21 -35 10 -277 33 -293 29 -3 0 -54 -4 -115 -9z m296 -40
c674 -88 1179 -662 1179 -1339 0 -743 -607 -1350 -1350 -1350 -209 0 -395 43
-590 137 -138 66 -234 134 -356 250 -211 200 -353 488 -394 796 -52 395 87
813 370 1107 169 177 442 329 680 379 151 32 315 39 461 20z"/>
<path d="M1300 3608 c-20 -32 -20 -49 -18 -743 3 -661 4 -713 21 -738 l17 -27
893 0 894 0 24 26 24 26 2 291 c2 161 3 309 3 329 0 35 4 40 78 89 42 28 81
55 85 59 11 10 0 30 -91 170 l-76 115 0 192 c-1 188 -1 192 -25 217 l-24 26
-894 0 -893 0 -20 -32z m1804 -14 c12 -11 16 -36 16 -95 l0 -79 -900 0 -900 0
0 85 c0 69 3 86 18 94 11 7 314 10 884 11 775 0 868 -2 882 -16z m14 -305 l3
-97 -252 -162 c-138 -89 -257 -164 -265 -167 -12 -4 -14 27 -14 193 0 170 -2
200 -17 216 -15 17 -46 18 -571 18 -503 0 -557 -2 -574 -17 -17 -15 -18 -45
-18 -521 0 -456 2 -507 17 -524 15 -17 46 -18 570 -18 655 0 593 -14 593 135
l0 95 38 26 c82 57 434 285 462 299 l30 16 0 -308 c0 -170 -4 -314 -8 -321 -7
-10 -193 -12 -898 -10 l-889 3 -3 610 c-1 336 0 616 3 623 3 10 188 12 897 10
l893 -3 3 -96z m-570 -41 c18 -18 17 -412 -2 -427 -7 -6 -64 -44 -126 -84
l-113 -74 -48 -124 c-26 -68 -44 -128 -39 -133 4 -4 65 -13 136 -18 111 -9
130 -9 155 6 15 9 32 16 38 16 15 0 15 -142 -1 -158 -17 -17 -1079 -17 -1096
0 -9 9 -12 132 -12 494 0 265 3 489 6 498 6 14 63 16 548 16 408 0 545 -3 554
-12z m670 -198 c34 -55 62 -103 62 -109 0 -10 -69 -56 -74 -50 -15 16 -136
210 -136 218 0 13 61 50 74 44 6 -2 39 -49 74 -103z m-113 -65 c67 -103 78
-135 47 -135 -11 0 -40 36 -82 102 -36 56 -67 106 -69 111 -4 10 19 28 31 24
4 -1 37 -47 73 -102z m-62 -51 c38 -59 65 -110 60 -115 -4 -4 -141 -93 -303
-197 l-295 -190 -22 24 c-13 14 -23 32 -23 40 0 8 -7 17 -15 21 -9 3 -22 21
-30 39 -8 19 -19 34 -24 34 -6 0 -11 8 -11 18 0 10 -5 23 -12 30 -8 8 -8 15
-2 21 5 6 92 63 194 129 102 65 230 149 285 185 55 37 107 67 115 67 8 0 46
-48 83 -106z m-697 -336 c4 -13 15 -29 25 -36 11 -7 19 -22 19 -33 0 -11 7
-22 15 -25 8 -4 15 -12 15 -20 0 -7 10 -22 22 -34 30 -28 17 -35 -55 -32 -53
3 -65 7 -84 30 -28 33 -28 47 -2 117 22 59 34 68 45 33z"/>
<path d="M2970 3554 c0 -11 5 -25 11 -31 8 -8 7 -17 -2 -31 -16 -26 -5 -40 16
-22 13 11 20 11 40 0 32 -17 39 -10 24 23 -9 21 -9 30 1 42 18 22 4 31 -25 15
-22 -12 -27 -11 -45 5 -19 18 -20 17 -20 -1z"/>
<path d="M1517 3173 c-4 -3 -7 -10 -7 -15 0 -4 221 -8 490 -8 446 0 526 4 474
24 -21 8 -949 8 -957 -1z"/>
<path d="M1515 3060 c-3 -6 0 -12 7 -15 7 -3 226 -4 487 -3 369 2 475 6 479
16 5 16 -963 18 -973 2z"/>
<path d="M1515 2970 c-3 -6 0 -12 7 -15 26 -10 963 0 963 10 0 14 -961 19
-970 5z"/>
</g>
</svg>
